<?xml version="1.0" standalone="no"?>
<!DOCTYPE svg PUBLIC "-//W3C//DTD SVG 20010904//EN"
 "http://www.w3.org/TR/2001/REC-SVG-20010904/DTD/svg10.dtd">
<svg version="1.0" xmlns="http://www.w3.org/2000/svg"
 width="796.000000pt" height="796.000000pt" viewBox="0 0 796.000000 796.000000"
 preserveAspectRatio="xMidYMid meet">
<metadata>
Created by potrace 1.14, written by Peter Selinger 2001-2017
</metadata>
<g transform="translate(0.000000,796.000000) scale(0.100000,-0.100000)"
fill="#000000" stroke="none">
<path d="M4365 7940 c-249 -39 -400 -87 -620 -198 -441 -220 -757 -594 -870
-1029 -37 -143 -46 -210 -46 -376 0 -223 33 -384 128 -623 120 -303 328 -600
633 -904 243 -243 560 -502 909 -744 71 -49 330 -233 621 -440 339 -241 520
-383 744 -585 155 -139 376 -373 431 -456 164 -248 199 -599 88 -895 -55 -147
-137 -260 -263 -359 -256 -204 -513 -305 -813 -318 l-127 -6 52 -35 c112 -74
278 -145 523 -225 279 -91 540 -154 850 -203 87 -14 227 -34 310 -45 l150 -18
-120 4 c-119 5 -317 21 -365 30 -14 2 -47 7 -75 10 -46 5 -75 9 -217 34 -29 5
-98 19 -153 31 -55 12 -111 23 -125 26 -141 27 -675 219 -735 264 -5 4 -50 29
-100 55 -206 110 -365 226 -519 381 -126 127 -227 260 -409 539 -263 404 -592
782 -853 980 -27 21 -51 40 -54 44 -10 13 -147 109 -230 161 -118 74 -307 170
-420 213 -345 134 -647 185 -1028 174 -245 -7 -439 -35 -697 -99 -22 -5 -125
-13 -230 -18 -104 -4 -230 -11 -279 -15 -108 -10 -108 -10 77 -91 470 -207
755 -411 908 -649 32 -49 66 -101 76 -115 17 -22 34 -59 127 -263 14 -32 26
-60 26 -62 0 -7 64 -145 111 -240 55 -110 96 -182 125 -220 13 -18 24 -36 24
-41 0 -6 13 -25 30 -44 16 -19 29 -39 30 -43 0 -9 30 -47 121 -156 30 -36 64
-77 75 -90 24 -29 145 -151 210 -211 350 -323 817 -589 1349 -768 184 -62 316
-102 337 -102 8 0 34 -7 58 -15 51 -18 465 -102 547 -110 32 -4 72 -9 88 -11
17 -2 68 -9 115 -14 47 -6 92 -12 100 -15 8 -2 65 -7 125 -10 61 -4 164 -10
230 -14 66 -4 235 -7 375 -5 206 2 293 7 454 28 191 25 203 28 310 76 61 27
143 66 181 86 65 34 273 161 285 174 3 3 24 17 47 32 46 30 176 185 255 305
102 155 198 360 259 558 88 289 103 699 35 1018 -105 491 -376 944 -792 1320
-263 239 -572 463 -1390 1008 -931 621 -1175 800 -1382 1010 -114 116 -193
225 -257 354 -102 207 -130 331 -122 549 5 163 22 241 79 365 140 307 490 525
878 550 326 20 603 -63 940 -284 395 -258 851 -765 1205 -1341 l30 -49 7 165
c4 91 8 329 10 530 3 392 3 397 -52 542 -27 72 -101 186 -169 260 -124 135
-596 396 -945 522 -318 115 -581 165 -901 172 -162 3 -223 0 -320 -16z m2087
-920 c16 0 23 -11 19 -32 0 -5 3 -8 8 -8 5 0 14 -15 22 -32 7 -18 17 -36 21
-39 13 -8 13 -78 0 -91 -22 -22 -133 125 -116 154 3 4 1 8 -5 8 -10 0 -7 32 5
51 4 8 9 8 17 0 6 -6 19 -11 29 -11z"/>
</g>
</svg>
